<mxfile host="Electron" modified="2024-01-21T12:03:53.761Z" agent="Mozilla/5.0 (Macintosh; Intel Mac OS X 10_15_7) AppleWebKit/537.36 (KHTML, like Gecko) draw.io/22.1.21 Chrome/120.0.6099.109 Electron/28.1.0 Safari/537.36" etag="caudcSZDTrgNxVSHNdBB" version="22.1.21" type="device">
  <diagram name="Page-1" id="KE9muHG0L7Go06889SHm">
    <mxGraphModel dx="954" dy="727" grid="1" gridSize="10" guides="1" tooltips="1" connect="1" arrows="1" fold="1" page="1" pageScale="1" pageWidth="900" pageHeight="1600" math="0" shadow="0">
      <root>
        <mxCell id="0" />
        <mxCell id="1" parent="0" />
        <mxCell id="bawa2tYWzTMJSxhJKjWm-1" value="devices" style="sketch=0;outlineConnect=0;gradientColor=none;fontColor=#545B64;strokeColor=none;fillColor=#879196;dashed=0;verticalLabelPosition=bottom;verticalAlign=top;align=center;html=1;fontSize=12;fontStyle=0;aspect=fixed;shape=mxgraph.aws4.illustration_devices;pointerEvents=1" vertex="1" parent="1">
          <mxGeometry x="116" y="381.53000000000003" width="78" height="56.94" as="geometry" />
        </mxCell>
        <mxCell id="bawa2tYWzTMJSxhJKjWm-6" style="edgeStyle=orthogonalEdgeStyle;rounded=0;orthogonalLoop=1;jettySize=auto;html=1;exitX=1;exitY=0.5;exitDx=0;exitDy=0;exitPerimeter=0;entryX=0;entryY=0.5;entryDx=0;entryDy=0;" edge="1" parent="1" source="bawa2tYWzTMJSxhJKjWm-3" target="bawa2tYWzTMJSxhJKjWm-4">
          <mxGeometry relative="1" as="geometry" />
        </mxCell>
        <mxCell id="bawa2tYWzTMJSxhJKjWm-21" value="Initiates Build&amp;nbsp;" style="edgeLabel;html=1;align=center;verticalAlign=middle;resizable=0;points=[];" vertex="1" connectable="0" parent="bawa2tYWzTMJSxhJKjWm-6">
          <mxGeometry x="-0.1333" y="2" relative="1" as="geometry">
            <mxPoint as="offset" />
          </mxGeometry>
        </mxCell>
        <mxCell id="bawa2tYWzTMJSxhJKjWm-3" value="" style="verticalLabelPosition=bottom;html=1;verticalAlign=top;align=center;strokeColor=none;fillColor=#00BEF2;shape=mxgraph.azure.git_repository;" vertex="1" parent="1">
          <mxGeometry x="130" y="125" width="50" height="50" as="geometry" />
        </mxCell>
        <mxCell id="bawa2tYWzTMJSxhJKjWm-4" value="" style="strokeColor=#dddddd;shadow=1;strokeWidth=1;rounded=1;absoluteArcSize=1;arcSize=2;" vertex="1" parent="1">
          <mxGeometry x="420" y="120" width="150" height="60" as="geometry" />
        </mxCell>
        <mxCell id="bawa2tYWzTMJSxhJKjWm-5" value="Build &amp;amp;&lt;br&gt;Compress" style="editableCssRules=.*;html=1;fontColor=#999999;shape=image;verticalLabelPosition=middle;verticalAlign=middle;labelPosition=right;align=left;spacingLeft=20;part=1;points=[];imageAspect=0;image=data:image/svg+xml,PHN2ZyB4bWxucz0iaHR0cDovL3d3dy53My5vcmcvMjAwMC9zdmciIHhtbG5zOnY9Imh0dHBzOi8vdmVjdGEuaW8vbmFubyIgd2lkdGg9IjE3LjMyOTk5OTkyMzcwNjA1NSIgaGVpZ2h0PSIxOS42MTAwMDA2MTAzNTE1NjIiIHZpZXdCb3g9IjAgMCAxNy4zMjk5OTk5MjM3MDYwNTUgMTkuNjEwMDAwNjEwMzUxNTYyIj4mI3hhOwk8c3R5bGUgdHlwZT0idGV4dC9jc3MiPiYjeGE7CS5zdDB7ZmlsbDojNDI4NWY0O30mI3hhOwkuc3Qxe2ZpbGw6IzY2OWRmNjt9JiN4YTsJLnN0MntmaWxsOiNhZWNiZmE7fSYjeGE7CTwvc3R5bGU+JiN4YTsJPHBhdGggY2xhc3M9InN0MCIgZD0iTTEyLjE4IDcuOThMMTEgNy4yOWwtMy41MiA2LjEgMS4xOC42OCAzLjUyLTIuMDN6IiBmaWxsPSIjNDI4NWY0Ii8+JiN4YTsJPHBhdGggY2xhc3M9InN0MSIgZD0iTTYuMzIgMTIuNzJsMy41My02LjA5LTEuMTktLjY5LTMuNTIgMi4wNHY0LjA2eiIgZmlsbD0iIzY2OWRmNiIvPiYjeGE7CTxwYXRoIGNsYXNzPSJzdDIiIGQ9Ik0zLjc1IDcuOThMMCA1LjgxdjkuMmw3Ljk3IDQuNnYtNC4zM2wtNC4yMi0yLjQ0em05LjEzLTEuMmwzLjc2LTIuMTdMOC42NiAwIC42OCA0LjYxbDMuNzYgMi4xNyA0LjIyLTIuNDR6TTkuMzUgMTkuNjFsNy45OC00LjZ2LTkuMmwtMy43NiAyLjE3djQuODZsLTQuMjIgMi40NHoiIGZpbGw9IiNhZWNiZmEiLz4mI3hhOzwvc3ZnPg==;" vertex="1" parent="bawa2tYWzTMJSxhJKjWm-4">
          <mxGeometry width="26" height="30" relative="1" as="geometry">
            <mxPoint x="17" y="15" as="offset" />
          </mxGeometry>
        </mxCell>
        <mxCell id="bawa2tYWzTMJSxhJKjWm-17" style="edgeStyle=orthogonalEdgeStyle;rounded=0;orthogonalLoop=1;jettySize=auto;html=1;exitX=0.5;exitY=1;exitDx=0;exitDy=0;exitPerimeter=0;entryX=1;entryY=0.5;entryDx=0;entryDy=0;" edge="1" parent="1" source="bawa2tYWzTMJSxhJKjWm-7" target="bawa2tYWzTMJSxhJKjWm-29">
          <mxGeometry relative="1" as="geometry" />
        </mxCell>
        <mxCell id="bawa2tYWzTMJSxhJKjWm-7" value="S3" style="sketch=0;points=[[0,0,0],[0.25,0,0],[0.5,0,0],[0.75,0,0],[1,0,0],[0,1,0],[0.25,1,0],[0.5,1,0],[0.75,1,0],[1,1,0],[0,0.25,0],[0,0.5,0],[0,0.75,0],[1,0.25,0],[1,0.5,0],[1,0.75,0]];outlineConnect=0;fontColor=#232F3E;fillColor=#7AA116;strokeColor=#ffffff;dashed=0;verticalLabelPosition=bottom;verticalAlign=top;align=center;html=1;fontSize=12;fontStyle=0;aspect=fixed;shape=mxgraph.aws4.resourceIcon;resIcon=mxgraph.aws4.s3;" vertex="1" parent="1">
          <mxGeometry x="720" y="309" width="78" height="78" as="geometry" />
        </mxCell>
        <mxCell id="bawa2tYWzTMJSxhJKjWm-8" style="edgeStyle=orthogonalEdgeStyle;rounded=0;orthogonalLoop=1;jettySize=auto;html=1;exitX=1;exitY=0.5;exitDx=0;exitDy=0;entryX=0.5;entryY=0;entryDx=0;entryDy=0;entryPerimeter=0;" edge="1" parent="1" source="bawa2tYWzTMJSxhJKjWm-4" target="bawa2tYWzTMJSxhJKjWm-7">
          <mxGeometry relative="1" as="geometry" />
        </mxCell>
        <mxCell id="bawa2tYWzTMJSxhJKjWm-22" value="Syncs the assets to s3 &lt;br&gt;(pre-compresed)" style="edgeLabel;html=1;align=center;verticalAlign=middle;resizable=0;points=[];" vertex="1" connectable="0" parent="bawa2tYWzTMJSxhJKjWm-8">
          <mxGeometry x="-0.431" y="-4" relative="1" as="geometry">
            <mxPoint as="offset" />
          </mxGeometry>
        </mxCell>
        <mxCell id="bawa2tYWzTMJSxhJKjWm-11" value="AWS Cloud" style="points=[[0,0],[0.25,0],[0.5,0],[0.75,0],[1,0],[1,0.25],[1,0.5],[1,0.75],[1,1],[0.75,1],[0.5,1],[0.25,1],[0,1],[0,0.75],[0,0.5],[0,0.25]];outlineConnect=0;gradientColor=none;html=1;whiteSpace=wrap;fontSize=12;fontStyle=0;container=1;pointerEvents=0;collapsible=0;recursiveResize=0;shape=mxgraph.aws4.group;grIcon=mxgraph.aws4.group_aws_cloud_alt;strokeColor=#232F3E;fillColor=none;verticalAlign=top;align=left;spacingLeft=30;fontColor=#232F3E;dashed=0;" vertex="1" parent="1">
          <mxGeometry x="240" y="240" width="590" height="340" as="geometry" />
        </mxCell>
        <mxCell id="bawa2tYWzTMJSxhJKjWm-12" value="CDN" style="fillColor=none;strokeColor=#5A6C86;dashed=1;verticalAlign=top;fontStyle=0;fontColor=#5A6C86;whiteSpace=wrap;html=1;" vertex="1" parent="bawa2tYWzTMJSxhJKjWm-11">
          <mxGeometry x="50" y="40" width="130" height="270" as="geometry" />
        </mxCell>
        <mxCell id="bawa2tYWzTMJSxhJKjWm-14" value="" style="outlineConnect=0;dashed=0;verticalLabelPosition=bottom;verticalAlign=top;align=center;html=1;shape=mxgraph.aws3.cloudfront;fillColor=#F58536;gradientColor=none;" vertex="1" parent="bawa2tYWzTMJSxhJKjWm-11">
          <mxGeometry x="50" y="43" width="30.44" height="37" as="geometry" />
        </mxCell>
        <mxCell id="bawa2tYWzTMJSxhJKjWm-15" value="Origin Request&lt;br&gt;Interceptor&lt;br&gt;(lambda@edge)&lt;br&gt;&lt;br&gt;Servers .br, .gzip&lt;br&gt;based on Accept Encoding&amp;nbsp;" style="sketch=0;points=[[0,0,0],[0.25,0,0],[0.5,0,0],[0.75,0,0],[1,0,0],[0,1,0],[0.25,1,0],[0.5,1,0],[0.75,1,0],[1,1,0],[0,0.25,0],[0,0.5,0],[0,0.75,0],[1,0.25,0],[1,0.5,0],[1,0.75,0]];outlineConnect=0;fontColor=#232F3E;fillColor=#ED7100;strokeColor=#ffffff;dashed=0;verticalLabelPosition=bottom;verticalAlign=top;align=center;html=1;fontSize=12;fontStyle=0;aspect=fixed;shape=mxgraph.aws4.resourceIcon;resIcon=mxgraph.aws4.lambda;" vertex="1" parent="bawa2tYWzTMJSxhJKjWm-11">
          <mxGeometry x="300" y="88" width="40" height="40" as="geometry" />
        </mxCell>
        <mxCell id="bawa2tYWzTMJSxhJKjWm-20" style="edgeStyle=orthogonalEdgeStyle;rounded=0;orthogonalLoop=1;jettySize=auto;html=1;entryX=0;entryY=0.5;entryDx=0;entryDy=0;entryPerimeter=0;" edge="1" parent="bawa2tYWzTMJSxhJKjWm-11" source="bawa2tYWzTMJSxhJKjWm-28" target="bawa2tYWzTMJSxhJKjWm-15">
          <mxGeometry relative="1" as="geometry" />
        </mxCell>
        <mxCell id="bawa2tYWzTMJSxhJKjWm-23" value="Cache Miss" style="edgeLabel;html=1;align=center;verticalAlign=middle;resizable=0;points=[];" vertex="1" connectable="0" parent="bawa2tYWzTMJSxhJKjWm-20">
          <mxGeometry x="-0.3693" y="1" relative="1" as="geometry">
            <mxPoint y="1" as="offset" />
          </mxGeometry>
        </mxCell>
        <mxCell id="bawa2tYWzTMJSxhJKjWm-26" value="" style="sketch=0;outlineConnect=0;fontColor=#232F3E;gradientColor=none;strokeColor=#232F3E;fillColor=#ffffff;dashed=0;verticalLabelPosition=bottom;verticalAlign=top;align=center;html=1;fontSize=12;fontStyle=0;aspect=fixed;shape=mxgraph.aws4.resourceIcon;resIcon=mxgraph.aws4.cache_node;" vertex="1" parent="bawa2tYWzTMJSxhJKjWm-11">
          <mxGeometry x="130" y="146" width="44.44" height="44.44" as="geometry" />
        </mxCell>
        <mxCell id="bawa2tYWzTMJSxhJKjWm-30" style="edgeStyle=orthogonalEdgeStyle;rounded=0;orthogonalLoop=1;jettySize=auto;html=1;exitX=0.5;exitY=1;exitDx=0;exitDy=0;entryX=0.5;entryY=0;entryDx=0;entryDy=0;" edge="1" parent="bawa2tYWzTMJSxhJKjWm-11" source="bawa2tYWzTMJSxhJKjWm-28" target="bawa2tYWzTMJSxhJKjWm-29">
          <mxGeometry relative="1" as="geometry" />
        </mxCell>
        <mxCell id="bawa2tYWzTMJSxhJKjWm-28" value="In&lt;br&gt;Cache" style="rhombus;whiteSpace=wrap;html=1;" vertex="1" parent="bawa2tYWzTMJSxhJKjWm-11">
          <mxGeometry x="80.88" y="80" width="59.12" height="58" as="geometry" />
        </mxCell>
        <mxCell id="bawa2tYWzTMJSxhJKjWm-29" value="Send Response" style="html=1;dashed=0;whiteSpace=wrap;" vertex="1" parent="bawa2tYWzTMJSxhJKjWm-11">
          <mxGeometry x="63" y="230" width="95" height="40" as="geometry" />
        </mxCell>
        <mxCell id="bawa2tYWzTMJSxhJKjWm-31" value="" style="endArrow=classic;startArrow=classic;html=1;rounded=0;exitX=0.75;exitY=0;exitDx=0;exitDy=0;" edge="1" parent="bawa2tYWzTMJSxhJKjWm-11" source="bawa2tYWzTMJSxhJKjWm-29" target="bawa2tYWzTMJSxhJKjWm-26">
          <mxGeometry width="50" height="50" relative="1" as="geometry">
            <mxPoint x="150" y="230" as="sourcePoint" />
            <mxPoint x="200" y="190" as="targetPoint" />
          </mxGeometry>
        </mxCell>
        <mxCell id="bawa2tYWzTMJSxhJKjWm-16" style="edgeStyle=orthogonalEdgeStyle;rounded=0;orthogonalLoop=1;jettySize=auto;html=1;exitX=1;exitY=0.5;exitDx=0;exitDy=0;exitPerimeter=0;entryX=0;entryY=0.5;entryDx=0;entryDy=0;entryPerimeter=0;" edge="1" parent="1" source="bawa2tYWzTMJSxhJKjWm-15" target="bawa2tYWzTMJSxhJKjWm-7">
          <mxGeometry relative="1" as="geometry" />
        </mxCell>
        <mxCell id="bawa2tYWzTMJSxhJKjWm-18" style="edgeStyle=orthogonalEdgeStyle;rounded=0;orthogonalLoop=1;jettySize=auto;html=1;exitX=0;exitY=0.5;exitDx=0;exitDy=0;" edge="1" parent="1" source="bawa2tYWzTMJSxhJKjWm-29" target="bawa2tYWzTMJSxhJKjWm-1">
          <mxGeometry relative="1" as="geometry">
            <Array as="points">
              <mxPoint x="150" y="490" />
            </Array>
          </mxGeometry>
        </mxCell>
        <mxCell id="bawa2tYWzTMJSxhJKjWm-25" value="REsponse" style="edgeLabel;html=1;align=center;verticalAlign=middle;resizable=0;points=[];" vertex="1" connectable="0" parent="bawa2tYWzTMJSxhJKjWm-18">
          <mxGeometry x="-0.1104" y="-1" relative="1" as="geometry">
            <mxPoint as="offset" />
          </mxGeometry>
        </mxCell>
        <mxCell id="bawa2tYWzTMJSxhJKjWm-19" style="edgeStyle=orthogonalEdgeStyle;rounded=0;orthogonalLoop=1;jettySize=auto;html=1;entryX=0;entryY=0.5;entryDx=0;entryDy=0;" edge="1" parent="1" source="bawa2tYWzTMJSxhJKjWm-1" target="bawa2tYWzTMJSxhJKjWm-28">
          <mxGeometry relative="1" as="geometry">
            <Array as="points">
              <mxPoint x="150" y="348" />
            </Array>
          </mxGeometry>
        </mxCell>
        <mxCell id="bawa2tYWzTMJSxhJKjWm-24" value="Request" style="edgeLabel;html=1;align=center;verticalAlign=middle;resizable=0;points=[];" vertex="1" connectable="0" parent="bawa2tYWzTMJSxhJKjWm-19">
          <mxGeometry x="-0.1399" y="2" relative="1" as="geometry">
            <mxPoint y="1" as="offset" />
          </mxGeometry>
        </mxCell>
        <mxCell id="bawa2tYWzTMJSxhJKjWm-32" value="" style="endArrow=classic;startArrow=classic;html=1;rounded=0;exitX=0.75;exitY=0;exitDx=0;exitDy=0;entryX=1;entryY=1;entryDx=0;entryDy=0;" edge="1" parent="1" target="bawa2tYWzTMJSxhJKjWm-28">
          <mxGeometry width="50" height="50" relative="1" as="geometry">
            <mxPoint x="393" y="393" as="sourcePoint" />
            <mxPoint x="405" y="353" as="targetPoint" />
          </mxGeometry>
        </mxCell>
      </root>
    </mxGraphModel>
  </diagram>
</mxfile>
